<svg width="180" height="180" viewBox="0 0 180 180" fill="none" xmlns="http://www.w3.org/2000/svg">
  <defs>
    <clipPath id="bodyClip">
      <rect x="42" y="42" width="96" height="96" rx="16" />
    </clipPath>
  </defs>

  <rect width="180" height="180" rx="40" fill="#0b1630" />

  <!-- tab kalender -->
  <rect x="66" y="28" width="10" height="20" rx="5" fill="#ffffff" />
  <rect x="104" y="28" width="10" height="20" rx="5" fill="#ffffff" />

  <!-- badan kalender -->
  <rect x="42" y="42" width="96" height="96" rx="16" fill="#ffffff" />

  <!-- header kalender (dipotong biar sudut atas ikut membulat, bawah lurus) -->
  <g clip-path="url(#bodyClip)">
    <rect x="42" y="42" width="96" height="22" fill="#7c9cff" />
  </g>

  <!-- baris agenda -->
  <rect x="58" y="92" width="64" height="7" rx="3.5" fill="#0b1630" />
  <rect x="58" y="107" width="46" height="7" rx="3.5" fill="#0b1630" />
  <rect x="58" y="122" width="54" height="7" rx="3.5" fill="#0b1630" />

  <!-- sparkle AI -->
  <path
    transform="translate(122,24) scale(1.15)"
    d="M12 0C12 6 14 8 20 8C14 8 12 10 12 16C12 10 10 8 4 8C10 8 12 6 12 0Z"
    fill="#ffd166" />
</svg>
